<svg width="254" height="14" viewBox="0 0 254 14" fill="none" xmlns="http://www.w3.org/2000/svg">
<path d="M6.02441 6.91211H7.02246C7.02246 7.6276 6.81738 8.16536 6.40723 8.52539C6.00163 8.88086 5.4502 9.05859 4.75293 9.05859C4.26986 9.05859 3.85059 8.94694 3.49512 8.72363C3.14421 8.50033 2.87077 8.19043 2.6748 7.79395C2.4834 7.39746 2.3877 6.93717 2.3877 6.41309V5.62695C2.3877 5.10286 2.4834 4.64258 2.6748 4.24609C2.87077 3.84961 3.14421 3.53971 3.49512 3.31641C3.85059 3.0931 4.26986 2.98145 4.75293 2.98145C5.4502 2.98145 6.00391 3.15918 6.41406 3.51465C6.82422 3.87012 7.0293 4.4056 7.0293 5.12109H6.03125C6.03125 4.66992 5.92188 4.34635 5.70312 4.15039C5.48893 3.95443 5.1722 3.85645 4.75293 3.85645C4.45215 3.85645 4.19922 3.93164 3.99414 4.08203C3.78906 4.23242 3.63411 4.44206 3.5293 4.71094C3.42448 4.97526 3.37207 5.27832 3.37207 5.62012V6.41309C3.37207 6.75944 3.42448 7.06706 3.5293 7.33594C3.63411 7.60026 3.78906 7.80762 3.99414 7.95801C4.19922 8.1084 4.45215 8.18359 4.75293 8.18359C5.1722 8.18359 5.48893 8.08561 5.70312 7.88965C5.91732 7.69368 6.02441 7.36784 6.02441 6.91211ZM0.78125 6.0166C0.78125 6.62272 0.886068 7.18783 1.0957 7.71191C1.30534 8.236 1.59701 8.69401 1.9707 9.08594C2.3444 9.47786 2.77734 9.7832 3.26953 10.002C3.76172 10.2207 4.28809 10.3301 4.84863 10.3301C5.40918 10.3301 5.93327 10.2207 6.4209 10.002C6.91309 9.7832 7.34375 9.47786 7.71289 9.08594C8.08659 8.69401 8.37826 8.236 8.58789 7.71191C8.79753 7.18783 8.90234 6.62272 8.90234 6.0166C8.90234 5.40592 8.79753 4.84082 8.58789 4.32129C8.37826 3.80176 8.08659 3.34831 7.71289 2.96094C7.34375 2.56901 6.91309 2.26595 6.4209 2.05176C5.93327 1.83301 5.40918 1.72363 4.84863 1.72363C4.28809 1.72363 3.76172 1.83301 3.26953 2.05176C2.77734 2.26595 2.3444 2.56901 1.9707 2.96094C1.59701 3.34831 1.30534 3.80176 1.0957 4.32129C0.886068 4.84082 0.78125 5.40592 0.78125 6.0166ZM-0.00488281 6.0166C-0.00488281 5.29199 0.120443 4.61979 0.371094 4C0.621745 3.38021 0.970378 2.84017 1.41699 2.37988C1.86361 1.91504 2.37858 1.55501 2.96191 1.2998C3.5498 1.04004 4.17871 0.910156 4.84863 0.910156C5.51855 0.910156 6.14518 1.04004 6.72852 1.2998C7.31641 1.55501 7.83138 1.91504 8.27344 2.37988C8.72005 2.84017 9.06868 3.38021 9.31934 4C9.56999 4.61979 9.69531 5.29199 9.69531 6.0166C9.69531 6.74121 9.56999 7.41341 9.31934 8.0332C9.06868 8.65299 8.72005 9.19759 8.27344 9.66699C7.83138 10.1318 7.31641 10.4941 6.72852 10.7539C6.14518 11.0137 5.51855 11.1436 4.84863 11.1436C4.17871 11.1436 3.5498 11.0137 2.96191 10.7539C2.37858 10.4941 1.86361 10.1318 1.41699 9.66699C0.970378 9.19759 0.621745 8.65299 0.371094 8.0332C0.120443 7.41341 -0.00488281 6.74121 -0.00488281 6.0166ZM21.1934 9.96094V11H14.6787V10.0908L17.9395 6.46094C18.3405 6.01432 18.6504 5.63607 18.8691 5.32617C19.0924 5.01172 19.2474 4.73145 19.334 4.48535C19.4251 4.2347 19.4707 3.97949 19.4707 3.71973C19.4707 3.3916 19.4023 3.09538 19.2656 2.83105C19.1335 2.56217 18.9375 2.34798 18.6777 2.18848C18.418 2.02897 18.1035 1.94922 17.7344 1.94922C17.2923 1.94922 16.9232 2.03581 16.627 2.20898C16.3353 2.3776 16.1165 2.61458 15.9707 2.91992C15.8249 3.22526 15.752 3.57617 15.752 3.97266H14.4873C14.4873 3.41211 14.6104 2.89941 14.8564 2.43457C15.1025 1.96973 15.4671 1.60059 15.9502 1.32715C16.4333 1.04915 17.028 0.910156 17.7344 0.910156C18.3633 0.910156 18.901 1.02181 19.3477 1.24512C19.7943 1.46387 20.1361 1.77376 20.373 2.1748C20.6146 2.57129 20.7354 3.03613 20.7354 3.56934C20.7354 3.861 20.6852 4.15723 20.585 4.45801C20.4893 4.75423 20.3548 5.05046 20.1816 5.34668C20.013 5.6429 19.8148 5.93457 19.5869 6.22168C19.3636 6.50879 19.1243 6.79134 18.8691 7.06934L16.2031 9.96094H21.1934ZM28.7949 5.23047V6.74805C28.7949 7.5638 28.722 8.25195 28.5762 8.8125C28.4303 9.37305 28.2207 9.82422 27.9473 10.166C27.6738 10.5078 27.3434 10.7562 26.9561 10.9111C26.5732 11.0615 26.1403 11.1367 25.6572 11.1367C25.2744 11.1367 24.9212 11.0889 24.5977 10.9932C24.2741 10.8975 23.9824 10.7448 23.7227 10.5352C23.4674 10.321 23.2487 10.043 23.0664 9.70117C22.8841 9.35938 22.7451 8.94466 22.6494 8.45703C22.5537 7.9694 22.5059 7.39974 22.5059 6.74805V5.23047C22.5059 4.41471 22.5788 3.73112 22.7246 3.17969C22.875 2.62826 23.0869 2.1862 23.3604 1.85352C23.6338 1.51628 23.9619 1.27474 24.3447 1.12891C24.7321 0.983073 25.165 0.910156 25.6436 0.910156C26.0309 0.910156 26.3864 0.958008 26.71 1.05371C27.0381 1.14486 27.3298 1.29297 27.585 1.49805C27.8402 1.69857 28.0566 1.96745 28.2344 2.30469C28.4167 2.63737 28.5557 3.04525 28.6514 3.52832C28.7471 4.01139 28.7949 4.57878 28.7949 5.23047ZM27.5234 6.95312V5.01855C27.5234 4.57194 27.4961 4.18001 27.4414 3.84277C27.3913 3.50098 27.3161 3.20931 27.2158 2.96777C27.1156 2.72624 26.988 2.53027 26.833 2.37988C26.6826 2.22949 26.5072 2.12012 26.3066 2.05176C26.1107 1.97884 25.8896 1.94238 25.6436 1.94238C25.3428 1.94238 25.0762 1.99935 24.8438 2.11328C24.6113 2.22266 24.4154 2.39811 24.2559 2.63965C24.1009 2.88118 23.9824 3.19792 23.9004 3.58984C23.8184 3.98177 23.7773 4.45801 23.7773 5.01855V6.95312C23.7773 7.39974 23.8024 7.79395 23.8525 8.13574C23.9072 8.47754 23.987 8.77376 24.0918 9.02441C24.1966 9.27051 24.3242 9.47331 24.4746 9.63281C24.625 9.79232 24.7982 9.91081 24.9941 9.98828C25.1947 10.0612 25.4157 10.0977 25.6572 10.0977C25.9671 10.0977 26.2383 10.0384 26.4707 9.91992C26.7031 9.80143 26.8968 9.61686 27.0518 9.36621C27.2113 9.111 27.3298 8.78516 27.4072 8.38867C27.4847 7.98763 27.5234 7.50911 27.5234 6.95312ZM36.9434 9.96094V11H30.4287V10.0908L33.6895 6.46094C34.0905 6.01432 34.4004 5.63607 34.6191 5.32617C34.8424 5.01172 34.9974 4.73145 35.084 4.48535C35.1751 4.2347 35.2207 3.97949 35.2207 3.71973C35.2207 3.3916 35.1523 3.09538 35.0156 2.83105C34.8835 2.56217 34.6875 2.34798 34.4277 2.18848C34.168 2.02897 33.8535 1.94922 33.4844 1.94922C33.0423 1.94922 32.6732 2.03581 32.377 2.20898C32.0853 2.3776 31.8665 2.61458 31.7207 2.91992C31.5749 3.22526 31.502 3.57617 31.502 3.97266H30.2373C30.2373 3.41211 30.3604 2.89941 30.6064 2.43457C30.8525 1.96973 31.2171 1.60059 31.7002 1.32715C32.1833 1.04915 32.778 0.910156 33.4844 0.910156C34.1133 0.910156 34.651 1.02181 35.0977 1.24512C35.5443 1.46387 35.8861 1.77376 36.123 2.1748C36.3646 2.57129 36.4854 3.03613 36.4854 3.56934C36.4854 3.861 36.4352 4.15723 36.335 4.45801C36.2393 4.75423 36.1048 5.05046 35.9316 5.34668C35.763 5.6429 35.5648 5.93457 35.3369 6.22168C35.1136 6.50879 34.8743 6.79134 34.6191 7.06934L31.9531 9.96094H36.9434ZM42.4531 0.992188V11H41.1885V2.57129L38.6387 3.50098V2.35938L42.2549 0.992188H42.4531ZM50.3896 1.04688H51.668L54.9287 9.16113L58.1826 1.04688H59.4678L55.4209 11H54.4229L50.3896 1.04688ZM49.9727 1.04688H51.1006L51.2852 7.11719V11H49.9727V1.04688ZM58.75 1.04688H59.8779V11H58.5654V7.11719L58.75 1.04688ZM63.3779 3.60352V11H62.1064V3.60352H63.3779ZM62.0107 1.6416C62.0107 1.43652 62.0723 1.26335 62.1953 1.12207C62.3229 0.980794 62.5098 0.910156 62.7559 0.910156C62.9974 0.910156 63.182 0.980794 63.3096 1.12207C63.4417 1.26335 63.5078 1.43652 63.5078 1.6416C63.5078 1.83757 63.4417 2.00618 63.3096 2.14746C63.182 2.28418 62.9974 2.35254 62.7559 2.35254C62.5098 2.35254 62.3229 2.28418 62.1953 2.14746C62.0723 2.00618 62.0107 1.83757 62.0107 1.6416ZM69.7148 9.03809C69.7148 8.85579 69.6738 8.68717 69.5918 8.53223C69.5143 8.37272 69.3525 8.22917 69.1064 8.10156C68.8649 7.9694 68.5003 7.85547 68.0127 7.75977C67.6025 7.67318 67.2311 7.57064 66.8984 7.45215C66.5703 7.33366 66.29 7.1901 66.0576 7.02148C65.8298 6.85286 65.6543 6.65462 65.5312 6.42676C65.4082 6.19889 65.3467 5.93229 65.3467 5.62695C65.3467 5.33529 65.4105 5.05957 65.5381 4.7998C65.6702 4.54004 65.8548 4.3099 66.0918 4.10938C66.3333 3.90885 66.6227 3.75163 66.96 3.6377C67.2972 3.52376 67.6732 3.4668 68.0879 3.4668C68.6803 3.4668 69.1862 3.57161 69.6055 3.78125C70.0247 3.99089 70.346 4.27116 70.5693 4.62207C70.7926 4.96842 70.9043 5.35352 70.9043 5.77734H69.6396C69.6396 5.57227 69.5781 5.37402 69.4551 5.18262C69.3366 4.98665 69.1611 4.82487 68.9287 4.69727C68.7008 4.56966 68.4206 4.50586 68.0879 4.50586C67.737 4.50586 67.4521 4.56055 67.2334 4.66992C67.0192 4.77474 66.862 4.90918 66.7617 5.07324C66.666 5.2373 66.6182 5.41048 66.6182 5.59277C66.6182 5.72949 66.641 5.85254 66.6865 5.96191C66.7367 6.06673 66.8232 6.16471 66.9463 6.25586C67.0693 6.34245 67.2425 6.42448 67.4658 6.50195C67.6891 6.57943 67.974 6.6569 68.3203 6.73438C68.9264 6.87109 69.4255 7.03516 69.8174 7.22656C70.2093 7.41797 70.501 7.65267 70.6924 7.93066C70.8838 8.20866 70.9795 8.5459 70.9795 8.94238C70.9795 9.26595 70.9111 9.56217 70.7744 9.83105C70.6423 10.0999 70.4486 10.3324 70.1934 10.5283C69.9427 10.7197 69.6419 10.8701 69.291 10.9795C68.9447 11.0843 68.555 11.1367 68.1221 11.1367C67.4704 11.1367 66.9189 11.0205 66.4678 10.7881C66.0166 10.5557 65.6748 10.2549 65.4424 9.88574C65.21 9.5166 65.0938 9.12695 65.0938 8.7168H66.3652C66.3835 9.06315 66.4837 9.33887 66.666 9.54395C66.8483 9.74447 67.0716 9.88802 67.3359 9.97461C67.6003 10.0566 67.8623 10.0977 68.1221 10.0977C68.4684 10.0977 68.7578 10.0521 68.9902 9.96094C69.2272 9.86979 69.4072 9.74447 69.5303 9.58496C69.6533 9.42546 69.7148 9.24316 69.7148 9.03809ZM75.7373 3.60352V4.57422H71.7383V3.60352H75.7373ZM73.0918 1.80566H74.3564V9.16797C74.3564 9.41862 74.3952 9.60775 74.4727 9.73535C74.5501 9.86296 74.6504 9.94727 74.7734 9.98828C74.8965 10.0293 75.0286 10.0498 75.1699 10.0498C75.2747 10.0498 75.3841 10.0407 75.498 10.0225C75.6165 9.99967 75.7054 9.98145 75.7646 9.96777L75.7715 11C75.6712 11.0319 75.5391 11.0615 75.375 11.0889C75.2155 11.1208 75.0218 11.1367 74.7939 11.1367C74.484 11.1367 74.1992 11.0752 73.9395 10.9521C73.6797 10.8291 73.4723 10.624 73.3174 10.3369C73.167 10.0452 73.0918 9.65332 73.0918 9.16113V1.80566ZM88.2402 6.04395V9.6875C88.1172 9.86979 87.9212 10.0749 87.6523 10.3027C87.3835 10.526 87.012 10.722 86.5381 10.8906C86.0687 11.0547 85.4626 11.1367 84.7197 11.1367C84.1136 11.1367 83.5553 11.0319 83.0449 10.8223C82.5391 10.6081 82.0993 10.2982 81.7256 9.89258C81.3564 9.48242 81.0693 8.98568 80.8643 8.40234C80.6637 7.81445 80.5635 7.14909 80.5635 6.40625V5.63379C80.5635 4.89095 80.6501 4.22786 80.8232 3.64453C81.001 3.0612 81.2607 2.56673 81.6025 2.16113C81.9443 1.75098 82.3636 1.44108 82.8604 1.23145C83.3571 1.01725 83.9268 0.910156 84.5693 0.910156C85.3304 0.910156 85.9661 1.04232 86.4766 1.30664C86.9915 1.56641 87.3926 1.92643 87.6797 2.38672C87.9714 2.84701 88.1582 3.37109 88.2402 3.95898H86.9209C86.8617 3.59896 86.7432 3.27083 86.5654 2.97461C86.3923 2.67839 86.1439 2.44141 85.8203 2.26367C85.4967 2.08138 85.0798 1.99023 84.5693 1.99023C84.109 1.99023 83.7103 2.07454 83.373 2.24316C83.0358 2.41178 82.7578 2.65332 82.5391 2.96777C82.3203 3.28223 82.1562 3.66276 82.0469 4.10938C81.9421 4.55599 81.8896 5.05957 81.8896 5.62012V6.40625C81.8896 6.98047 81.9557 7.49316 82.0879 7.94434C82.2246 8.39551 82.4183 8.7806 82.6689 9.09961C82.9196 9.41406 83.2181 9.65332 83.5645 9.81738C83.9154 9.98145 84.3027 10.0635 84.7266 10.0635C85.196 10.0635 85.5765 10.0247 85.8682 9.94727C86.1598 9.86523 86.3877 9.76953 86.5518 9.66016C86.7158 9.54622 86.8411 9.43913 86.9277 9.33887V7.11035H84.624V6.04395H88.2402ZM94.5977 9.73535V5.92773C94.5977 5.63607 94.5384 5.38314 94.4199 5.16895C94.306 4.9502 94.1328 4.78158 93.9004 4.66309C93.668 4.5446 93.3809 4.48535 93.0391 4.48535C92.7201 4.48535 92.4398 4.54004 92.1982 4.64941C91.9613 4.75879 91.7744 4.90234 91.6377 5.08008C91.5055 5.25781 91.4395 5.44922 91.4395 5.6543H90.1748C90.1748 5.38997 90.2432 5.12793 90.3799 4.86816C90.5166 4.6084 90.7126 4.3737 90.9678 4.16406C91.2275 3.94987 91.5374 3.78125 91.8975 3.6582C92.262 3.5306 92.6676 3.4668 93.1143 3.4668C93.652 3.4668 94.126 3.55794 94.5361 3.74023C94.9508 3.92253 95.2744 4.19824 95.5068 4.56738C95.7438 4.93197 95.8623 5.38997 95.8623 5.94141V9.38672C95.8623 9.63281 95.8828 9.89486 95.9238 10.1729C95.9694 10.4508 96.0355 10.6901 96.1221 10.8906V11H94.8027C94.7389 10.8542 94.6888 10.6605 94.6523 10.4189C94.6159 10.1729 94.5977 9.94499 94.5977 9.73535ZM94.8164 6.51562L94.8301 7.4043H93.5518C93.1917 7.4043 92.8704 7.43392 92.5879 7.49316C92.3053 7.54785 92.0684 7.63216 91.877 7.74609C91.6855 7.86003 91.5397 8.00358 91.4395 8.17676C91.3392 8.34538 91.2891 8.54362 91.2891 8.77148C91.2891 9.00391 91.3415 9.21582 91.4463 9.40723C91.5511 9.59863 91.7083 9.7513 91.918 9.86523C92.1322 9.97461 92.3942 10.0293 92.7041 10.0293C93.0915 10.0293 93.4333 9.94727 93.7295 9.7832C94.0257 9.61914 94.2604 9.41862 94.4336 9.18164C94.6113 8.94466 94.707 8.71452 94.7207 8.49121L95.2607 9.09961C95.2288 9.29102 95.1423 9.50293 95.001 9.73535C94.8597 9.96777 94.6706 10.1911 94.4336 10.4053C94.2012 10.6149 93.9232 10.7904 93.5996 10.9316C93.2806 11.0684 92.9206 11.1367 92.5195 11.1367C92.0182 11.1367 91.5785 11.0387 91.2002 10.8428C90.8265 10.6468 90.5348 10.3848 90.3252 10.0566C90.1201 9.72396 90.0176 9.35254 90.0176 8.94238C90.0176 8.5459 90.0951 8.19727 90.25 7.89648C90.4049 7.59115 90.6283 7.33822 90.9199 7.1377C91.2116 6.93262 91.5625 6.77767 91.9727 6.67285C92.3828 6.56803 92.8408 6.51562 93.3467 6.51562H94.8164ZM99.1162 4.76562V11H97.8516V3.60352H99.082L99.1162 4.76562ZM101.427 3.5625L101.42 4.73828C101.315 4.71549 101.215 4.70182 101.119 4.69727C101.028 4.68815 100.923 4.68359 100.805 4.68359C100.513 4.68359 100.256 4.72917 100.032 4.82031C99.8089 4.91146 99.6198 5.03906 99.4648 5.20312C99.3099 5.36719 99.1868 5.56315 99.0957 5.79102C99.0091 6.01432 98.9521 6.26042 98.9248 6.5293L98.5693 6.73438C98.5693 6.28776 98.6126 5.86849 98.6992 5.47656C98.7904 5.08464 98.9294 4.73828 99.1162 4.4375C99.3031 4.13216 99.54 3.89518 99.8271 3.72656C100.119 3.55339 100.465 3.4668 100.866 3.4668C100.957 3.4668 101.062 3.47819 101.181 3.50098C101.299 3.51921 101.381 3.53971 101.427 3.5625ZM107.121 9.56445V0.5H108.393V11H107.23L107.121 9.56445ZM102.145 7.38379V7.24023C102.145 6.67513 102.213 6.16243 102.35 5.70215C102.491 5.2373 102.689 4.83854 102.944 4.50586C103.204 4.17318 103.512 3.91797 103.867 3.74023C104.227 3.55794 104.628 3.4668 105.07 3.4668C105.535 3.4668 105.941 3.54883 106.287 3.71289C106.638 3.8724 106.934 4.1071 107.176 4.41699C107.422 4.72233 107.616 5.09147 107.757 5.52441C107.898 5.95736 107.996 6.44727 108.051 6.99414V7.62305C108.001 8.16536 107.903 8.65299 107.757 9.08594C107.616 9.51888 107.422 9.88802 107.176 10.1934C106.934 10.4987 106.638 10.7334 106.287 10.8975C105.936 11.057 105.526 11.1367 105.057 11.1367C104.624 11.1367 104.227 11.0433 103.867 10.8564C103.512 10.6696 103.204 10.4076 102.944 10.0703C102.689 9.73307 102.491 9.33659 102.35 8.88086C102.213 8.42057 102.145 7.92155 102.145 7.38379ZM103.416 7.24023V7.38379C103.416 7.75293 103.452 8.09928 103.525 8.42285C103.603 8.74642 103.721 9.03125 103.881 9.27734C104.04 9.52344 104.243 9.71712 104.489 9.8584C104.735 9.99512 105.029 10.0635 105.371 10.0635C105.79 10.0635 106.134 9.97461 106.403 9.79688C106.677 9.61914 106.896 9.38444 107.06 9.09277C107.224 8.80111 107.351 8.48438 107.442 8.14258V6.49512C107.388 6.24447 107.308 6.00293 107.203 5.77051C107.103 5.53353 106.971 5.32389 106.807 5.1416C106.647 4.95475 106.449 4.80664 106.212 4.69727C105.979 4.58789 105.704 4.5332 105.385 4.5332C105.038 4.5332 104.74 4.60612 104.489 4.75195C104.243 4.89323 104.04 5.08919 103.881 5.33984C103.721 5.58594 103.603 5.87305 103.525 6.20117C103.452 6.52474 103.416 6.87109 103.416 7.24023ZM113.431 11.1367C112.916 11.1367 112.449 11.0501 112.029 10.877C111.615 10.6992 111.257 10.4508 110.956 10.1318C110.66 9.81283 110.432 9.43457 110.272 8.99707C110.113 8.55957 110.033 8.08105 110.033 7.56152V7.27441C110.033 6.67285 110.122 6.13737 110.3 5.66797C110.478 5.19401 110.719 4.79297 111.024 4.46484C111.33 4.13672 111.676 3.88835 112.063 3.71973C112.451 3.55111 112.852 3.4668 113.267 3.4668C113.795 3.4668 114.251 3.55794 114.634 3.74023C115.021 3.92253 115.338 4.17773 115.584 4.50586C115.83 4.82943 116.012 5.21224 116.131 5.6543C116.249 6.0918 116.309 6.57031 116.309 7.08984V7.65723H110.785V6.625H115.044V6.5293C115.026 6.20117 114.957 5.88216 114.839 5.57227C114.725 5.26237 114.543 5.00716 114.292 4.80664C114.041 4.60612 113.7 4.50586 113.267 4.50586C112.979 4.50586 112.715 4.56738 112.474 4.69043C112.232 4.80892 112.025 4.98665 111.852 5.22363C111.678 5.46061 111.544 5.75 111.448 6.0918C111.353 6.43359 111.305 6.8278 111.305 7.27441V7.56152C111.305 7.91243 111.353 8.24284 111.448 8.55273C111.549 8.85807 111.692 9.12695 111.879 9.35938C112.07 9.5918 112.3 9.77409 112.569 9.90625C112.843 10.0384 113.153 10.1045 113.499 10.1045C113.946 10.1045 114.324 10.0133 114.634 9.83105C114.944 9.64876 115.215 9.40495 115.447 9.09961L116.213 9.70801C116.053 9.94954 115.851 10.1797 115.604 10.3984C115.358 10.6172 115.055 10.7949 114.695 10.9316C114.34 11.0684 113.918 11.1367 113.431 11.1367ZM119.05 5.18262V11H117.785V3.60352H118.981L119.05 5.18262ZM118.749 7.02148L118.223 7.00098C118.227 6.49512 118.302 6.02799 118.448 5.59961C118.594 5.16667 118.799 4.79069 119.063 4.47168C119.328 4.15267 119.642 3.90658 120.007 3.7334C120.376 3.55566 120.784 3.4668 121.23 3.4668C121.595 3.4668 121.923 3.51693 122.215 3.61719C122.507 3.71289 122.755 3.86784 122.96 4.08203C123.17 4.29622 123.329 4.57422 123.438 4.91602C123.548 5.25326 123.603 5.66569 123.603 6.15332V11H122.331V6.13965C122.331 5.75228 122.274 5.44238 122.16 5.20996C122.046 4.97298 121.88 4.80208 121.661 4.69727C121.442 4.58789 121.174 4.5332 120.854 4.5332C120.54 4.5332 120.253 4.59928 119.993 4.73145C119.738 4.86361 119.517 5.0459 119.33 5.27832C119.148 5.51074 119.004 5.77734 118.899 6.07812C118.799 6.37435 118.749 6.6888 118.749 7.02148ZM129.83 9.03809C129.83 8.85579 129.789 8.68717 129.707 8.53223C129.63 8.37272 129.468 8.22917 129.222 8.10156C128.98 7.9694 128.616 7.85547 128.128 7.75977C127.718 7.67318 127.346 7.57064 127.014 7.45215C126.686 7.33366 126.405 7.1901 126.173 7.02148C125.945 6.85286 125.77 6.65462 125.646 6.42676C125.523 6.19889 125.462 5.93229 125.462 5.62695C125.462 5.33529 125.526 5.05957 125.653 4.7998C125.785 4.54004 125.97 4.3099 126.207 4.10938C126.449 3.90885 126.738 3.75163 127.075 3.6377C127.412 3.52376 127.788 3.4668 128.203 3.4668C128.796 3.4668 129.301 3.57161 129.721 3.78125C130.14 3.99089 130.461 4.27116 130.685 4.62207C130.908 4.96842 131.02 5.35352 131.02 5.77734H129.755C129.755 5.57227 129.693 5.37402 129.57 5.18262C129.452 4.98665 129.276 4.82487 129.044 4.69727C128.816 4.56966 128.536 4.50586 128.203 4.50586C127.852 4.50586 127.567 4.56055 127.349 4.66992C127.134 4.77474 126.977 4.90918 126.877 5.07324C126.781 5.2373 126.733 5.41048 126.733 5.59277C126.733 5.72949 126.756 5.85254 126.802 5.96191C126.852 6.06673 126.938 6.16471 127.062 6.25586C127.185 6.34245 127.358 6.42448 127.581 6.50195C127.804 6.57943 128.089 6.6569 128.436 6.73438C129.042 6.87109 129.541 7.03516 129.933 7.22656C130.325 7.41797 130.616 7.65267 130.808 7.93066C130.999 8.20866 131.095 8.5459 131.095 8.94238C131.095 9.26595 131.026 9.56217 130.89 9.83105C130.757 10.0999 130.564 10.3324 130.309 10.5283C130.058 10.7197 129.757 10.8701 129.406 10.9795C129.06 11.0843 128.67 11.1367 128.237 11.1367C127.586 11.1367 127.034 11.0205 126.583 10.7881C126.132 10.5557 125.79 10.2549 125.558 9.88574C125.325 9.5166 125.209 9.12695 125.209 8.7168H126.48C126.499 9.06315 126.599 9.33887 126.781 9.54395C126.964 9.74447 127.187 9.88802 127.451 9.97461C127.715 10.0566 127.978 10.0977 128.237 10.0977C128.584 10.0977 128.873 10.0521 129.105 9.96094C129.342 9.86979 129.522 9.74447 129.646 9.58496C129.769 9.42546 129.83 9.24316 129.83 9.03809ZM132.776 10.3301C132.776 10.1159 132.842 9.93587 132.975 9.79004C133.111 9.63965 133.307 9.56445 133.562 9.56445C133.818 9.56445 134.011 9.63965 134.144 9.79004C134.28 9.93587 134.349 10.1159 134.349 10.3301C134.349 10.5397 134.28 10.7174 134.144 10.8633C134.011 11.0091 133.818 11.082 133.562 11.082C133.307 11.082 133.111 11.0091 132.975 10.8633C132.842 10.7174 132.776 10.5397 132.776 10.3301ZM143.796 1.92871L140.501 11H139.154L142.948 1.04688H143.816L143.796 1.92871ZM146.558 11L143.256 1.92871L143.235 1.04688H144.104L147.911 11H146.558ZM146.387 7.31543V8.39551H140.795V7.31543H146.387ZM150.427 0.5V11H149.155V0.5H150.427ZM153.831 0.5V11H152.56V0.5H153.831ZM160.599 4.76562V11H159.334V3.60352H160.564L160.599 4.76562ZM162.909 3.5625L162.902 4.73828C162.798 4.71549 162.697 4.70182 162.602 4.69727C162.51 4.68815 162.406 4.68359 162.287 4.68359C161.995 4.68359 161.738 4.72917 161.515 4.82031C161.291 4.91146 161.102 5.03906 160.947 5.20312C160.792 5.36719 160.669 5.56315 160.578 5.79102C160.492 6.01432 160.435 6.26042 160.407 6.5293L160.052 6.73438C160.052 6.28776 160.095 5.86849 160.182 5.47656C160.273 5.08464 160.412 4.73828 160.599 4.4375C160.785 4.13216 161.022 3.89518 161.31 3.72656C161.601 3.55339 161.948 3.4668 162.349 3.4668C162.44 3.4668 162.545 3.47819 162.663 3.50098C162.782 3.51921 162.864 3.53971 162.909 3.5625ZM165.452 3.60352V11H164.181V3.60352H165.452ZM164.085 1.6416C164.085 1.43652 164.146 1.26335 164.27 1.12207C164.397 0.980794 164.584 0.910156 164.83 0.910156C165.072 0.910156 165.256 0.980794 165.384 1.12207C165.516 1.26335 165.582 1.43652 165.582 1.6416C165.582 1.83757 165.516 2.00618 165.384 2.14746C165.256 2.28418 165.072 2.35254 164.83 2.35254C164.584 2.35254 164.397 2.28418 164.27 2.14746C164.146 2.00618 164.085 1.83757 164.085 1.6416ZM172.274 3.60352H173.423V10.8428C173.423 11.4945 173.291 12.0505 173.026 12.5107C172.762 12.971 172.393 13.3197 171.919 13.5566C171.45 13.7982 170.907 13.9189 170.292 13.9189C170.037 13.9189 169.736 13.8779 169.39 13.7959C169.048 13.7184 168.711 13.584 168.378 13.3926C168.05 13.2057 167.774 12.9528 167.551 12.6338L168.214 11.8818C168.524 12.2555 168.847 12.5153 169.185 12.6611C169.526 12.807 169.864 12.8799 170.196 12.8799C170.597 12.8799 170.944 12.8047 171.235 12.6543C171.527 12.5039 171.753 12.2806 171.912 11.9844C172.076 11.6927 172.158 11.3327 172.158 10.9043V5.23047L172.274 3.60352ZM167.182 7.38379V7.24023C167.182 6.67513 167.248 6.16243 167.38 5.70215C167.517 5.2373 167.71 4.83854 167.961 4.50586C168.216 4.17318 168.524 3.91797 168.884 3.74023C169.244 3.55794 169.649 3.4668 170.101 3.4668C170.565 3.4668 170.971 3.54883 171.317 3.71289C171.668 3.8724 171.965 4.1071 172.206 4.41699C172.452 4.72233 172.646 5.09147 172.787 5.52441C172.928 5.95736 173.026 6.44727 173.081 6.99414V7.62305C173.031 8.16536 172.933 8.65299 172.787 9.08594C172.646 9.51888 172.452 9.88802 172.206 10.1934C171.965 10.4987 171.668 10.7334 171.317 10.8975C170.966 11.057 170.556 11.1367 170.087 11.1367C169.645 11.1367 169.244 11.0433 168.884 10.8564C168.528 10.6696 168.223 10.4076 167.968 10.0703C167.713 9.73307 167.517 9.33659 167.38 8.88086C167.248 8.42057 167.182 7.92155 167.182 7.38379ZM168.446 7.24023V7.38379C168.446 7.75293 168.483 8.09928 168.556 8.42285C168.633 8.74642 168.749 9.03125 168.904 9.27734C169.064 9.52344 169.267 9.71712 169.513 9.8584C169.759 9.99512 170.053 10.0635 170.395 10.0635C170.814 10.0635 171.16 9.97461 171.434 9.79688C171.707 9.61914 171.924 9.38444 172.083 9.09277C172.247 8.80111 172.375 8.48438 172.466 8.14258V6.49512C172.416 6.24447 172.338 6.00293 172.233 5.77051C172.133 5.53353 172.001 5.32389 171.837 5.1416C171.677 4.95475 171.479 4.80664 171.242 4.69727C171.005 4.58789 170.727 4.5332 170.408 4.5332C170.062 4.5332 169.763 4.60612 169.513 4.75195C169.267 4.89323 169.064 5.08919 168.904 5.33984C168.749 5.58594 168.633 5.87305 168.556 6.20117C168.483 6.52474 168.446 6.87109 168.446 7.24023ZM176.608 0.5V11H175.344V0.5H176.608ZM176.308 7.02148L175.781 7.00098C175.786 6.49512 175.861 6.02799 176.007 5.59961C176.153 5.16667 176.358 4.79069 176.622 4.47168C176.886 4.15267 177.201 3.90658 177.565 3.7334C177.935 3.55566 178.342 3.4668 178.789 3.4668C179.154 3.4668 179.482 3.51693 179.773 3.61719C180.065 3.71289 180.313 3.86784 180.519 4.08203C180.728 4.29622 180.888 4.57422 180.997 4.91602C181.106 5.25326 181.161 5.66569 181.161 6.15332V11H179.89V6.13965C179.89 5.75228 179.833 5.44238 179.719 5.20996C179.605 4.97298 179.438 4.80208 179.22 4.69727C179.001 4.58789 178.732 4.5332 178.413 4.5332C178.099 4.5332 177.812 4.59928 177.552 4.73145C177.297 4.86361 177.076 5.0459 176.889 5.27832C176.706 5.51074 176.563 5.77734 176.458 6.07812C176.358 6.37435 176.308 6.6888 176.308 7.02148ZM186.151 3.60352V4.57422H182.152V3.60352H186.151ZM183.506 1.80566H184.771V9.16797C184.771 9.41862 184.809 9.60775 184.887 9.73535C184.964 9.86296 185.064 9.94727 185.188 9.98828C185.311 10.0293 185.443 10.0498 185.584 10.0498C185.689 10.0498 185.798 10.0407 185.912 10.0225C186.031 9.99967 186.119 9.98145 186.179 9.96777L186.186 11C186.085 11.0319 185.953 11.0615 185.789 11.0889C185.63 11.1208 185.436 11.1367 185.208 11.1367C184.898 11.1367 184.613 11.0752 184.354 10.9521C184.094 10.8291 183.886 10.624 183.731 10.3369C183.581 10.0452 183.506 9.65332 183.506 9.16113V1.80566ZM191.941 9.03809C191.941 8.85579 191.9 8.68717 191.818 8.53223C191.741 8.37272 191.579 8.22917 191.333 8.10156C191.091 7.9694 190.727 7.85547 190.239 7.75977C189.829 7.67318 189.458 7.57064 189.125 7.45215C188.797 7.33366 188.517 7.1901 188.284 7.02148C188.056 6.85286 187.881 6.65462 187.758 6.42676C187.635 6.19889 187.573 5.93229 187.573 5.62695C187.573 5.33529 187.637 5.05957 187.765 4.7998C187.897 4.54004 188.081 4.3099 188.318 4.10938C188.56 3.90885 188.849 3.75163 189.187 3.6377C189.524 3.52376 189.9 3.4668 190.314 3.4668C190.907 3.4668 191.413 3.57161 191.832 3.78125C192.251 3.99089 192.573 4.27116 192.796 4.62207C193.019 4.96842 193.131 5.35352 193.131 5.77734H191.866C191.866 5.57227 191.805 5.37402 191.682 5.18262C191.563 4.98665 191.388 4.82487 191.155 4.69727C190.927 4.56966 190.647 4.50586 190.314 4.50586C189.964 4.50586 189.679 4.56055 189.46 4.66992C189.246 4.77474 189.089 4.90918 188.988 5.07324C188.893 5.2373 188.845 5.41048 188.845 5.59277C188.845 5.72949 188.868 5.85254 188.913 5.96191C188.963 6.06673 189.05 6.16471 189.173 6.25586C189.296 6.34245 189.469 6.42448 189.692 6.50195C189.916 6.57943 190.201 6.6569 190.547 6.73438C191.153 6.87109 191.652 7.03516 192.044 7.22656C192.436 7.41797 192.728 7.65267 192.919 7.93066C193.11 8.20866 193.206 8.5459 193.206 8.94238C193.206 9.26595 193.138 9.56217 193.001 9.83105C192.869 10.0999 192.675 10.3324 192.42 10.5283C192.169 10.7197 191.868 10.8701 191.518 10.9795C191.171 11.0843 190.782 11.1367 190.349 11.1367C189.697 11.1367 189.146 11.0205 188.694 10.7881C188.243 10.5557 187.901 10.2549 187.669 9.88574C187.437 9.5166 187.32 9.12695 187.32 8.7168H188.592C188.61 9.06315 188.71 9.33887 188.893 9.54395C189.075 9.74447 189.298 9.88802 189.562 9.97461C189.827 10.0566 190.089 10.0977 190.349 10.0977C190.695 10.0977 190.984 10.0521 191.217 9.96094C191.454 9.86979 191.634 9.74447 191.757 9.58496C191.88 9.42546 191.941 9.24316 191.941 9.03809ZM199.604 4.76562V11H198.34V3.60352H199.57L199.604 4.76562ZM201.915 3.5625L201.908 4.73828C201.803 4.71549 201.703 4.70182 201.607 4.69727C201.516 4.68815 201.411 4.68359 201.293 4.68359C201.001 4.68359 200.744 4.72917 200.521 4.82031C200.297 4.91146 200.108 5.03906 199.953 5.20312C199.798 5.36719 199.675 5.56315 199.584 5.79102C199.497 6.01432 199.44 6.26042 199.413 6.5293L199.058 6.73438C199.058 6.28776 199.101 5.86849 199.188 5.47656C199.279 5.08464 199.418 4.73828 199.604 4.4375C199.791 4.13216 200.028 3.89518 200.315 3.72656C200.607 3.55339 200.953 3.4668 201.354 3.4668C201.446 3.4668 201.55 3.47819 201.669 3.50098C201.787 3.51921 201.869 3.53971 201.915 3.5625ZM206.017 11.1367C205.502 11.1367 205.035 11.0501 204.615 10.877C204.201 10.6992 203.843 10.4508 203.542 10.1318C203.246 9.81283 203.018 9.43457 202.858 8.99707C202.699 8.55957 202.619 8.08105 202.619 7.56152V7.27441C202.619 6.67285 202.708 6.13737 202.886 5.66797C203.063 5.19401 203.305 4.79297 203.61 4.46484C203.916 4.13672 204.262 3.88835 204.649 3.71973C205.037 3.55111 205.438 3.4668 205.853 3.4668C206.381 3.4668 206.837 3.55794 207.22 3.74023C207.607 3.92253 207.924 4.17773 208.17 4.50586C208.416 4.82943 208.598 5.21224 208.717 5.6543C208.835 6.0918 208.895 6.57031 208.895 7.08984V7.65723H203.371V6.625H207.63V6.5293C207.612 6.20117 207.543 5.88216 207.425 5.57227C207.311 5.26237 207.129 5.00716 206.878 4.80664C206.627 4.60612 206.285 4.50586 205.853 4.50586C205.565 4.50586 205.301 4.56738 205.06 4.69043C204.818 4.80892 204.611 4.98665 204.438 5.22363C204.264 5.46061 204.13 5.75 204.034 6.0918C203.938 6.43359 203.891 6.8278 203.891 7.27441V7.56152C203.891 7.91243 203.938 8.24284 204.034 8.55273C204.134 8.85807 204.278 9.12695 204.465 9.35938C204.656 9.5918 204.886 9.77409 205.155 9.90625C205.429 10.0384 205.739 10.1045 206.085 10.1045C206.532 10.1045 206.91 10.0133 207.22 9.83105C207.53 9.64876 207.801 9.40495 208.033 9.09961L208.799 9.70801C208.639 9.94954 208.437 10.1797 208.19 10.3984C207.944 10.6172 207.641 10.7949 207.281 10.9316C206.926 11.0684 206.504 11.1367 206.017 11.1367ZM214.678 9.03809C214.678 8.85579 214.637 8.68717 214.555 8.53223C214.477 8.37272 214.315 8.22917 214.069 8.10156C213.828 7.9694 213.463 7.85547 212.976 7.75977C212.565 7.67318 212.194 7.57064 211.861 7.45215C211.533 7.33366 211.253 7.1901 211.021 7.02148C210.793 6.85286 210.617 6.65462 210.494 6.42676C210.371 6.19889 210.31 5.93229 210.31 5.62695C210.31 5.33529 210.373 5.05957 210.501 4.7998C210.633 4.54004 210.818 4.3099 211.055 4.10938C211.296 3.90885 211.586 3.75163 211.923 3.6377C212.26 3.52376 212.636 3.4668 213.051 3.4668C213.643 3.4668 214.149 3.57161 214.568 3.78125C214.988 3.99089 215.309 4.27116 215.532 4.62207C215.756 4.96842 215.867 5.35352 215.867 5.77734H214.603C214.603 5.57227 214.541 5.37402 214.418 5.18262C214.299 4.98665 214.124 4.82487 213.892 4.69727C213.664 4.56966 213.383 4.50586 213.051 4.50586C212.7 4.50586 212.415 4.56055 212.196 4.66992C211.982 4.77474 211.825 4.90918 211.725 5.07324C211.629 5.2373 211.581 5.41048 211.581 5.59277C211.581 5.72949 211.604 5.85254 211.649 5.96191C211.7 6.06673 211.786 6.16471 211.909 6.25586C212.032 6.34245 212.205 6.42448 212.429 6.50195C212.652 6.57943 212.937 6.6569 213.283 6.73438C213.889 6.87109 214.388 7.03516 214.78 7.22656C215.172 7.41797 215.464 7.65267 215.655 7.93066C215.847 8.20866 215.942 8.5459 215.942 8.94238C215.942 9.26595 215.874 9.56217 215.737 9.83105C215.605 10.0999 215.411 10.3324 215.156 10.5283C214.906 10.7197 214.605 10.8701 214.254 10.9795C213.908 11.0843 213.518 11.1367 213.085 11.1367C212.433 11.1367 211.882 11.0205 211.431 10.7881C210.979 10.5557 210.638 10.2549 210.405 9.88574C210.173 9.5166 210.057 9.12695 210.057 8.7168H211.328C211.346 9.06315 211.447 9.33887 211.629 9.54395C211.811 9.74447 212.035 9.88802 212.299 9.97461C212.563 10.0566 212.825 10.0977 213.085 10.0977C213.431 10.0977 213.721 10.0521 213.953 9.96094C214.19 9.86979 214.37 9.74447 214.493 9.58496C214.616 9.42546 214.678 9.24316 214.678 9.03809ZM220.673 11.1367C220.158 11.1367 219.691 11.0501 219.271 10.877C218.857 10.6992 218.499 10.4508 218.198 10.1318C217.902 9.81283 217.674 9.43457 217.515 8.99707C217.355 8.55957 217.275 8.08105 217.275 7.56152V7.27441C217.275 6.67285 217.364 6.13737 217.542 5.66797C217.72 5.19401 217.961 4.79297 218.267 4.46484C218.572 4.13672 218.918 3.88835 219.306 3.71973C219.693 3.55111 220.094 3.4668 220.509 3.4668C221.037 3.4668 221.493 3.55794 221.876 3.74023C222.263 3.92253 222.58 4.17773 222.826 4.50586C223.072 4.82943 223.255 5.21224 223.373 5.6543C223.492 6.0918 223.551 6.57031 223.551 7.08984V7.65723H218.027V6.625H222.286V6.5293C222.268 6.20117 222.2 5.88216 222.081 5.57227C221.967 5.26237 221.785 5.00716 221.534 4.80664C221.284 4.60612 220.942 4.50586 220.509 4.50586C220.222 4.50586 219.957 4.56738 219.716 4.69043C219.474 4.80892 219.267 4.98665 219.094 5.22363C218.921 5.46061 218.786 5.75 218.69 6.0918C218.595 6.43359 218.547 6.8278 218.547 7.27441V7.56152C218.547 7.91243 218.595 8.24284 218.69 8.55273C218.791 8.85807 218.934 9.12695 219.121 9.35938C219.312 9.5918 219.543 9.77409 219.812 9.90625C220.085 10.0384 220.395 10.1045 220.741 10.1045C221.188 10.1045 221.566 10.0133 221.876 9.83105C222.186 9.64876 222.457 9.40495 222.689 9.09961L223.455 9.70801C223.296 9.94954 223.093 10.1797 222.847 10.3984C222.601 10.6172 222.298 10.7949 221.938 10.9316C221.582 11.0684 221.16 11.1367 220.673 11.1367ZM226.292 4.76562V11H225.027V3.60352H226.258L226.292 4.76562ZM228.603 3.5625L228.596 4.73828C228.491 4.71549 228.391 4.70182 228.295 4.69727C228.204 4.68815 228.099 4.68359 227.98 4.68359C227.689 4.68359 227.431 4.72917 227.208 4.82031C226.985 4.91146 226.796 5.03906 226.641 5.20312C226.486 5.36719 226.363 5.56315 226.271 5.79102C226.185 6.01432 226.128 6.26042 226.101 6.5293L225.745 6.73438C225.745 6.28776 225.788 5.86849 225.875 5.47656C225.966 5.08464 226.105 4.73828 226.292 4.4375C226.479 4.13216 226.716 3.89518 227.003 3.72656C227.295 3.55339 227.641 3.4668 228.042 3.4668C228.133 3.4668 228.238 3.47819 228.356 3.50098C228.475 3.51921 228.557 3.53971 228.603 3.5625ZM232.144 9.8584L234.167 3.60352H235.459L232.8 11H231.952L232.144 9.8584ZM230.455 3.60352L232.54 9.89258L232.684 11H231.836L229.156 3.60352H230.455ZM239.649 11.1367C239.134 11.1367 238.667 11.0501 238.248 10.877C237.833 10.6992 237.476 10.4508 237.175 10.1318C236.879 9.81283 236.651 9.43457 236.491 8.99707C236.332 8.55957 236.252 8.08105 236.252 7.56152V7.27441C236.252 6.67285 236.341 6.13737 236.519 5.66797C236.696 5.19401 236.938 4.79297 237.243 4.46484C237.549 4.13672 237.895 3.88835 238.282 3.71973C238.67 3.55111 239.071 3.4668 239.485 3.4668C240.014 3.4668 240.47 3.55794 240.853 3.74023C241.24 3.92253 241.557 4.17773 241.803 4.50586C242.049 4.82943 242.231 5.21224 242.35 5.6543C242.468 6.0918 242.527 6.57031 242.527 7.08984V7.65723H237.004V6.625H241.263V6.5293C241.244 6.20117 241.176 5.88216 241.058 5.57227C240.944 5.26237 240.761 5.00716 240.511 4.80664C240.26 4.60612 239.918 4.50586 239.485 4.50586C239.198 4.50586 238.934 4.56738 238.692 4.69043C238.451 4.80892 238.243 4.98665 238.07 5.22363C237.897 5.46061 237.763 5.75 237.667 6.0918C237.571 6.43359 237.523 6.8278 237.523 7.27441V7.56152C237.523 7.91243 237.571 8.24284 237.667 8.55273C237.767 8.85807 237.911 9.12695 238.098 9.35938C238.289 9.5918 238.519 9.77409 238.788 9.90625C239.062 10.0384 239.371 10.1045 239.718 10.1045C240.164 10.1045 240.543 10.0133 240.853 9.83105C241.162 9.64876 241.434 9.40495 241.666 9.09961L242.432 9.70801C242.272 9.94954 242.069 10.1797 241.823 10.3984C241.577 10.6172 241.274 10.7949 240.914 10.9316C240.559 11.0684 240.137 11.1367 239.649 11.1367ZM248.666 9.56445V0.5H249.938V11H248.775L248.666 9.56445ZM243.689 7.38379V7.24023C243.689 6.67513 243.758 6.16243 243.895 5.70215C244.036 5.2373 244.234 4.83854 244.489 4.50586C244.749 4.17318 245.057 3.91797 245.412 3.74023C245.772 3.55794 246.173 3.4668 246.615 3.4668C247.08 3.4668 247.486 3.54883 247.832 3.71289C248.183 3.8724 248.479 4.1071 248.721 4.41699C248.967 4.72233 249.16 5.09147 249.302 5.52441C249.443 5.95736 249.541 6.44727 249.596 6.99414V7.62305C249.546 8.16536 249.448 8.65299 249.302 9.08594C249.16 9.51888 248.967 9.88802 248.721 10.1934C248.479 10.4987 248.183 10.7334 247.832 10.8975C247.481 11.057 247.071 11.1367 246.602 11.1367C246.169 11.1367 245.772 11.0433 245.412 10.8564C245.057 10.6696 244.749 10.4076 244.489 10.0703C244.234 9.73307 244.036 9.33659 243.895 8.88086C243.758 8.42057 243.689 7.92155 243.689 7.38379ZM244.961 7.24023V7.38379C244.961 7.75293 244.997 8.09928 245.07 8.42285C245.148 8.74642 245.266 9.03125 245.426 9.27734C245.585 9.52344 245.788 9.71712 246.034 9.8584C246.28 9.99512 246.574 10.0635 246.916 10.0635C247.335 10.0635 247.679 9.97461 247.948 9.79688C248.222 9.61914 248.44 9.38444 248.604 9.09277C248.769 8.80111 248.896 8.48438 248.987 8.14258V6.49512C248.933 6.24447 248.853 6.00293 248.748 5.77051C248.648 5.53353 248.516 5.32389 248.352 5.1416C248.192 4.95475 247.994 4.80664 247.757 4.69727C247.524 4.58789 247.249 4.5332 246.93 4.5332C246.583 4.5332 246.285 4.60612 246.034 4.75195C245.788 4.89323 245.585 5.08919 245.426 5.33984C245.266 5.58594 245.148 5.87305 245.07 6.20117C244.997 6.52474 244.961 6.87109 244.961 7.24023ZM251.927 10.3301C251.927 10.1159 251.993 9.93587 252.125 9.79004C252.262 9.63965 252.458 9.56445 252.713 9.56445C252.968 9.56445 253.162 9.63965 253.294 9.79004C253.431 9.93587 253.499 10.1159 253.499 10.3301C253.499 10.5397 253.431 10.7174 253.294 10.8633C253.162 11.0091 252.968 11.082 252.713 11.082C252.458 11.082 252.262 11.0091 252.125 10.8633C251.993 10.7174 251.927 10.5397 251.927 10.3301Z" fill="white"/>
</svg>
